<svg width="627" height="143" viewBox="0 0 627 143" fill="none" xmlns="http://www.w3.org/2000/svg">
<path fill-rule="evenodd" clip-rule="evenodd" d="M1.92749 93.2203V110.754L15.3277 109.943L8.63921 92.455L1.92749 93.2203Z" fill="white"/>
<path d="M75.408 142.645C114.759 142.645 146.659 110.787 146.659 71.4884C146.659 32.1898 114.759 0.332031 75.408 0.332031C36.0572 0.332031 4.15698 32.1898 4.15698 71.4884C4.15698 110.787 36.0572 142.645 75.408 142.645Z" fill="white"/>
<path fill-rule="evenodd" clip-rule="evenodd" d="M110.36 1.16699H116.793V10.3514L116.84 13.5985H111.01L110.36 1.16699Z" fill="white"/>
<path fill-rule="evenodd" clip-rule="evenodd" d="M116.793 1.16698V10.3282C152.303 11.0704 205.23 11.7894 208.412 9.56288C213.242 6.19988 211.315 1.16698 211.315 1.16698H116.793ZM75.3849 142.668C50.9301 142.668 29.3551 130.352 16.5122 111.612C16.1174 112.308 15.6762 112.378 14.9562 112.424H1.92759H0V90.9938H6.08467L6.22402 88.5817C4.83058 82.9921 4.15709 77.2403 4.15709 71.4884C4.13386 33.5445 34.8127 0.332031 75.3849 0.332031C79.1008 0.332031 82.7701 0.610348 86.3234 1.16698H110.337L110.941 10.3282L111.847 83.9663H124.132V65.7365L117.258 58.8714L116.816 13.5753L117.931 14.387H195.011C195.011 14.387 196.637 19.4199 192.573 22.7829C190.251 24.708 156.738 24.4296 128.382 23.8498C125.734 20.9739 122.878 18.2835 119.836 15.8714L120.393 57.6653L126.036 62.4199V83.9431H145.498C145.126 86.0536 144.639 88.1178 144.081 90.1588H103.021L103.045 89.2079L107.039 87.5612L105.112 87.4916L107.364 16.2657H67.094C62.1241 25.5197 56.6432 39.4588 56.2716 49.8492L56.202 51.5887L11.9603 54.3487L9.73083 94.7742H3.8784V108.458H13.4931C13.4931 102.242 15.5833 95.6324 20.2048 91.017C32.2813 78.9566 56.4806 83.8503 59.012 107.252L63.3085 105.489H136.325C137.161 104.423 138.554 102.729 140.18 100.967C129.102 125.111 104.879 142.575 75.3849 142.575V142.668ZM36.0668 96.5137C30.5627 96.5137 26.1037 100.967 26.1037 106.464C26.1037 111.96 30.5627 116.413 36.0668 116.413C41.5709 116.413 46.0299 111.96 46.0299 106.464C46.0299 100.967 41.5709 96.5137 36.0668 96.5137ZM36.0668 89.4166C26.6379 89.4166 19.0204 97.0472 19.0204 106.44C19.0204 115.834 26.6611 123.464 36.0668 123.464C45.4957 123.464 53.1132 115.834 53.1132 106.44C53.1132 97.024 45.4725 89.4166 36.0668 89.4166ZM131.053 26.9345C133.584 30.0192 135.883 33.3126 137.904 36.7684C156.018 36.9771 171.904 36.722 173.39 35.3304C176.943 31.9674 175.527 26.9345 175.527 26.9345H131.053ZM82.7237 59.1729L84.3494 71.5116H91.1075V59.1729H82.7237ZM62.7976 94.7742V102.451H95.4272V98.6011L62.7976 94.751V94.7742ZM28.1706 61.0283V78.7014H33.7676V61.0283H28.1706ZM36.09 61.0283V78.7014H43.3127V61.0283H36.09ZM68.0462 23.1076L59.6623 50.5682H91.1075V23.1076H68.0462Z" fill="#C41A1D"/>
<path fill-rule="evenodd" clip-rule="evenodd" d="M182.331 110.569V46.8574H195.638C205.555 46.8574 212.545 47.3213 216.656 48.249C220.767 49.1767 224.366 50.7306 227.478 52.8876C231.519 55.7172 234.585 59.3121 236.675 63.6956C238.765 68.1023 239.81 73.112 239.81 78.7479C239.81 84.3838 238.765 89.3935 236.675 93.777C234.585 98.1837 231.519 101.779 227.478 104.608C224.39 106.742 220.883 108.273 216.935 109.2C212.987 110.105 206.856 110.569 198.565 110.569H195.638H182.331ZM199.563 96.305H202.489C209.317 96.305 214.31 94.9135 217.446 92.1071C220.581 89.3239 222.137 84.8709 222.137 78.7711C222.137 72.6713 220.581 68.2182 217.446 65.3655C214.31 62.5359 209.317 61.098 202.489 61.098H199.563V96.305ZM266.03 86.7727H283.332L276.829 65.7366C276.643 65.0872 276.365 64.0667 276.016 62.6519C275.668 61.2371 275.204 59.4049 274.669 57.1783C274.298 58.7323 273.926 60.2398 273.555 61.6546C273.206 63.0694 272.835 64.4378 272.463 65.7366L266.053 86.7727H266.03ZM241.645 110.569L263.661 46.8574H285.445L307.485 110.569H290.183L286.955 99.1578H262.245L258.924 110.569H241.622H241.645ZM319.166 110.569H336.561V61.9097H350.844V46.8574H304.884V61.9097H319.166V110.569ZM372.605 86.7727H389.907L383.404 65.7366C383.218 65.0872 382.939 64.0667 382.591 62.6519C382.243 61.2371 381.778 59.4049 381.244 57.1783C380.873 58.7323 380.501 60.2398 380.129 61.6546C379.781 63.0694 379.409 64.4378 379.038 65.7366L372.628 86.7727H372.605ZM348.22 110.569L370.236 46.8574H392.02L414.06 110.569H396.758L393.53 99.1578H368.819L365.498 110.569H348.196H348.22ZM464.827 49.3391V68.311C462.458 65.667 460.066 63.742 457.697 62.5127C455.328 61.2835 452.797 60.6573 450.103 60.6573C445.11 60.6573 441.069 62.3736 437.957 65.7598C434.868 69.1691 433.312 73.599 433.312 79.0726C433.312 84.1751 434.891 88.4194 438.05 91.7824C441.208 95.1454 445.226 96.8385 450.103 96.8385C452.797 96.8385 455.328 96.2355 457.697 95.0062C460.066 93.777 462.435 91.852 464.827 89.1848V108.157C462.087 109.502 459.323 110.499 456.606 111.172C453.865 111.844 451.125 112.169 448.315 112.169C444.831 112.169 441.626 111.752 438.677 110.94C435.727 110.105 433.033 108.853 430.549 107.159C425.788 103.959 422.165 99.9464 419.656 95.1222C417.148 90.2748 415.917 84.8245 415.917 78.7479C415.917 73.8773 416.707 69.4475 418.286 65.4583C419.866 61.469 422.258 57.8509 425.439 54.6039C428.458 51.496 431.872 49.1767 435.658 47.646C439.443 46.1152 443.67 45.3499 448.292 45.3499C451.078 45.3499 453.842 45.6746 456.583 46.3472C459.3 47.0198 462.063 48.0171 464.804 49.3623L464.827 49.3391ZM474.651 110.569V46.8574H492.046V71.6276H515.246V46.8574H532.641V110.569H515.246V84.6389H492.046V110.569H474.651ZM611.695 78.8407C611.695 83.4329 610.836 87.7236 609.164 91.7128C607.492 95.7252 605.03 99.297 601.802 102.474C598.551 105.605 594.835 108.018 590.654 109.734C586.474 111.427 582.131 112.285 577.649 112.285C573.167 112.285 568.708 111.427 564.551 109.734C560.394 108.018 556.724 105.629 553.566 102.474C550.268 99.3201 547.806 95.7252 546.088 91.6664C544.392 87.6308 543.533 83.3633 543.533 78.8407C543.533 74.318 544.392 70.0041 546.088 65.9685C547.806 61.9561 550.291 58.3612 553.566 55.2069C556.724 52.0758 560.394 49.6638 564.551 47.9475C568.708 46.2544 573.097 45.3962 577.649 45.3962C582.178 45.3962 586.544 46.2544 590.747 47.9475C594.951 49.6638 598.62 52.0527 601.825 55.2069C605.03 58.338 607.468 61.9097 609.164 65.9685C610.859 70.0041 611.718 74.2948 611.718 78.8407H611.695ZM577.603 97.5575C582.41 97.5575 586.404 95.7948 589.563 92.2463C592.721 88.6977 594.301 84.2215 594.301 78.8407C594.301 73.4599 592.698 69.0532 589.516 65.4814C586.311 61.9097 582.34 60.1238 577.626 60.1238C572.818 60.1238 568.824 61.9097 565.665 65.4583C562.507 69.0068 560.928 73.4831 560.928 78.8407C560.928 84.1983 562.484 88.7673 565.573 92.2926C568.685 95.818 572.702 97.5575 577.603 97.5575Z" fill="#010101"/>
<path d="M616.363 51.3104C610.488 51.3104 605.727 46.5326 605.727 40.688C605.727 34.8433 610.511 30.0656 616.363 30.0656C622.216 30.0656 627 34.8433 627 40.688C627 46.5326 622.216 51.3104 616.363 51.3104ZM616.363 31.8282C611.463 31.8282 607.492 35.7942 607.492 40.688C607.492 45.5817 611.463 49.5477 616.363 49.5477C621.264 49.5477 625.235 45.5817 625.235 40.688C625.235 35.7942 621.264 31.8282 616.363 31.8282Z" fill="#010101"/>
<path d="M620.938 39.0644C620.938 40.7575 620.195 41.8012 618.732 42.2419L621.403 45.9528H619.22L616.781 42.5202H614.505V45.9528H612.787V35.7478H616.596C618.152 35.7478 619.266 36.0029 619.94 36.5364C620.613 37.0698 620.938 37.9048 620.938 39.0644ZM618.639 40.5024C618.988 40.2009 619.173 39.7138 619.173 39.0412C619.173 38.3686 618.988 37.928 618.639 37.6728C618.268 37.4177 617.641 37.3017 616.712 37.3017H614.529V40.9431H616.665C617.641 40.9431 618.291 40.8039 618.663 40.4792L618.639 40.5024Z" fill="#010101"/>
</svg>
