<svg width="897" height="675" viewBox="0 0 897 675" fill="none" xmlns="http://www.w3.org/2000/svg">
<path d="M353.241 675C300.458 675 250.608 662.573 203.69 637.719C156.772 612.87 119.514 578.87 91.9155 535.725C63.9718 492.235 50 443.566 50 389.722C50 349.339 58.1071 311.719 74.3213 276.855C90.5356 241.991 112.787 211.793 141.076 186.249C169.709 160.361 202.31 140.517 238.878 126.712C276.137 112.903 314.258 106 353.241 106C392.569 106 430.862 112.903 468.12 126.712C504.344 139.828 536.944 159.502 565.923 185.735C594.557 211.962 616.807 242.341 632.678 276.855C648.893 311.719 657 349.339 657 389.722C657 430.794 649.062 468.42 633.197 502.59C617.327 537.109 594.902 567.652 565.923 594.229C536.599 620.462 503.999 640.311 468.12 653.772C431.897 667.922 393.604 675 353.241 675ZM215.074 389.722C215.074 426.654 228.874 458.411 256.473 484.988C283.727 511.565 315.982 524.851 353.241 524.851C390.844 524.851 423.272 511.565 450.526 484.988C478.125 458.411 491.924 426.654 491.924 389.722C491.924 365.563 485.542 343.301 472.778 322.932C460.013 302.568 442.936 286.345 421.548 274.268C400.503 262.185 377.735 256.147 353.241 256.147C329.437 256.147 306.841 262.185 285.451 274.268C264.062 286.345 246.986 302.568 234.221 322.932C221.457 343.301 215.074 365.563 215.074 389.722Z" fill="#A92323"/>
<path d="M549.76 382.745C543.007 368.561 549.073 351.605 563.31 344.874L832.234 217.75C846.474 211.019 863.489 217.069 870.243 231.254C876.992 245.444 870.926 262.4 856.692 269.125L587.762 396.249C573.528 402.98 556.513 396.935 549.76 382.745Z" fill="#A92323"/>
<path d="M422.757 632.699C416.011 618.474 422.071 601.469 436.293 594.719L830.278 407.758C844.497 401.008 861.495 407.075 868.242 421.3C874.99 435.531 868.93 452.535 854.706 459.28L460.723 646.241C446.501 652.991 429.503 646.929 422.757 632.699Z" fill="#A92323"/>
<path d="M448.757 227.699C442.011 213.473 448.071 196.469 462.293 189.719L856.278 2.75803C870.497 -3.99091 887.495 2.07191 894.242 16.2999C900.99 30.5273 894.93 47.5325 880.706 54.2809L486.723 241.241C472.501 247.991 455.503 241.929 448.757 227.699Z" fill="#A92323"/>
<circle cx="318.5" cy="336.5" r="13.5" fill="#A92323"/>
<path d="M231.457 326.887C224.875 336.729 211.619 339.886 201.849 333.937L17.311 221.563C7.54013 215.613 4.96028 202.809 11.5415 192.966C18.1281 183.125 31.3838 179.967 41.1492 185.916L225.69 298.294C235.459 304.241 238.042 317.042 231.457 326.887Z" fill="#A92323"/>
</svg>
