<?xml version="1.0" encoding="utf-8"?>
<!-- Svg Vector Icons : http://www.onlinewebfonts.com/icon -->
<!DOCTYPE svg PUBLIC "-//W3C//DTD SVG 1.1//EN" "http://www.w3.org/Graphics/SVG/1.1/DTD/svg11.dtd">
<svg version="1.1" xmlns="http://www.w3.org/2000/svg" xmlns:xlink="http://www.w3.org/1999/xlink" x="0px" y="0px" viewBox="0 0 1000 1000" enable-background="new 0 0 1000 1000" xml:space="preserve">
<metadata> Svg Vector Icons : http://www.onlinewebfonts.com/icon </metadata>
<g><g transform="translate(0.000000,511.000000) scale(0.100000,-0.100000)"><path d="M4798.8,2844.2c-170.5-78.6-258.7-222.3-258.7-417.7c0-268.3,193.5-463.7,459.9-463.7c264.4,0,465.6,201.2,465.6,467.5C5465.6,2771.3,5113.1,2991.7,4798.8,2844.2z"/><path d="M4409.8,1997.2c-120.7-59.4-222.3-174.4-260.6-293.2c-15.3-47.9-38.3-203.1-49.8-341.1c-21.1-268.3-15.3-312.3,57.5-350.7c49.8-26.8,1636.5-26.8,1686.3,0c72.8,38.3,80.5,82.4,57.5,356.4c-30.7,369.8-82.4,488.6-262.5,601.7c-139.9,88.2-183.9,90.1-275.9,11.5c-199.3-168.6-525.1-170.5-722.4,0c-42.2,34.5-88.1,65.1-103.5,65.1C4520.9,2047,4465.4,2024,4409.8,1997.2z"/><path d="M2641.1,1807.5c-206.9-67.1-367.9-293.2-367.9-517.4c0-473.3,580.6-716.7,915.9-383.2c258.7,258.7,189.7,705.2-134.1,862.3C2926.7,1832.4,2763.8,1847.7,2641.1,1807.5z"/><path d="M7015.9,1799.8c-134.1-46-226.1-124.6-297-247.2c-199.3-356.4,55.6-795.2,465.6-797.1c500.1-1.9,732,601.7,360.2,937C7391.4,1830.5,7211.3,1866.9,7015.9,1799.8z"/><path d="M2175.5,820.6c-49.8-19.2-109.2-49.8-128.4-69c-34.5-30.7-32.6-34.5,36.4-84.3c149.5-107.3,266.4-277.9,320-467.5c32.6-113.1,32.6-400.5,0-504l-13.4-44.1h350.7h352.6l312.3,482.9l310.4,482.9l-61.3,65.1c-65.2,67.1-174.4,132.2-270.2,159.1c-47.9,13.4-69,5.7-138-49.8c-141.8-116.9-245.3-153.3-440.7-153.3c-197.4,0-298.9,36.4-425.4,151.4c-42.2,38.3-84.3,69-93.9,69C2277.1,857.1,2227.2,841.7,2175.5,820.6z"/><path d="M4017,830.2c-34.5-32.6-2134.7-3286.3-2151.9-3332.3c-17.2-44.1,26.8-141.8,70.9-155.2c28.7-9.6,4895.9-17.3,5970.9-11.5c136,1.9,162.9,7.7,197.4,44.1c21.1,23,38.3,61.3,38.3,84.3c0,42.1-2105.9,3330.4-2161.5,3376.4c-23,17.3-249.1,23-983,23C4187.5,859,4040,855.1,4017,830.2z"/><path d="M6609.6,841.7c-92-28.7-201.2-93.9-262.5-159.1l-63.2-65.1l312.3-482.9l310.4-482.9h352.6h350.7l-13.4,44.1c-7.7,23-17.3,120.7-23,218.5c-7.7,143.7-1.9,199.3,28.7,306.6c49.8,161,153.3,314.3,285.5,415.8c53.7,44.1,99.6,84.3,99.6,90.1c1.9,15.3-130.3,86.2-214.6,113c-69,21.1-74.7,21.1-151.4-47.9c-128.4-116.9-228-153.3-427.3-153.3c-195.5,0-298.9,36.4-442.6,153.3c-44.1,36.4-84.3,67.1-88.2,65.2C6659.4,857.1,6636.5,849.4,6609.6,841.7z"/><path d="M1345.8,678.8c-208.9-67.1-412-254.9-486.7-448.4c-59.4-153.3-59.4-390.9,0-546.1c61.3-155.2,218.4-320,381.3-400.5c118.8-59.4,141.8-63.2,320-63.2s201.2,3.8,318.1,61.3c298.9,147.5,469.5,473.3,417.7,795.2c-38.3,237.6-210.8,463.7-435,567.2C1729,703.8,1476.1,721,1345.8,678.8z"/><path d="M8236.5,680.8c-199.3-55.6-381.3-214.6-473.3-412c-46-95.8-51.7-132.2-51.7-310.4s5.7-214.6,51.7-310.4c70.9-155.2,207-291.3,358.3-366c116.9-55.6,141.8-61.3,318.1-61.3c178.2,0,201.2,3.8,316.2,61.3c475.2,233.8,582.5,837.4,214.6,1207.2c-132.2,132.2-298.9,203.1-492.5,210.8C8391.7,701.8,8286.3,694.2,8236.5,680.8z"/><path d="M723-681.7c-212.7-70.9-385.2-218.5-482.9-410.1c-69-134.1-80.5-206.9-116.9-657.3c-30.7-364.1-30.7-398.6-1.9-454.2c61.3-118.8,63.2-118.8,925.5-115l779.9,5.7l456.1,707.1c435,670.7,456.1,709,425.4,741.6c-57.5,63.2-216.5,155.2-327.7,189.7l-111.1,34.5l-93.9-82.4c-366-320-879.5-320-1237.9,3.8l-88.1,78.6L723-681.7z"/><path d="M7602.2-681.7c-69-23-174.4-78.6-233.8-122.6c-107.3-80.5-107.3-82.4-78.6-134.1c15.3-28.8,220.4-348.8,456.1-712.8l427.3-661.1l779.9-5.7c862.3-3.8,864.2-3.8,925.5,115c28.8,55.6,28.8,90.1-1.9,454.2c-36.4,450.3-47.9,523.1-116.9,657.3c-97.7,191.6-270.2,339.2-482.9,410.1l-126.5,42.1l-95.8-86.2c-348.7-314.2-871.9-312.3-1230.2,1.9l-95.8,84.3L7602.2-681.7z"/></g></g>
</svg>