<svg width="1255" height="720" viewBox="0 0 1255 720" fill="none" xmlns="http://www.w3.org/2000/svg">
<path d="M156.786 1.70264C84.5445 12.8477 39.6436 49.8463 26.5279 108.981C17.1008 151.467 33.1824 190.244 75.1258 226.757L92.4929 241.62L85.4688 244.853C71.7985 250.994 51.1041 264.887 37.0642 277.325C22.1 290.572 13.7819 301.563 5.65708 318.041C1.40561 327.247 0.851074 330.156 0.851074 348.413C0.851074 365.377 1.59046 370.387 5.28739 379.916C24.8727 431.131 82.8893 482.992 193.932 548.746C229.036 569.589 245.294 582.997 253.427 598.183C264.879 619.672 261.93 636.474 244 652.307C229.221 665.068 217.205 669.109 193.007 669.109C176.749 669.109 173.237 668.624 164.003 664.745C152.736 660.219 135.73 647.458 133.89 642.293C133.151 640.515 134.814 635.504 137.587 630.34C147.376 613.053 143.317 591.401 127.799 577.185C107.289 558.605 71.8153 558.444 51.1209 577.024C40.3998 586.722 36.8961 594.957 36.8961 611.113C36.8961 628.077 40.5931 641.323 49.2725 655.862C70.7063 691.568 129.832 720 182.673 720C265.266 720 323.097 687.204 345.271 628.069C358.017 593.98 354.135 558.113 334.365 528.55C324.383 514.01 316.628 505.444 298.891 490.42L284.464 478.136L299.613 469.9C338.045 449.38 364.461 421.918 374.073 393.001C379.064 377.815 377.215 353.255 369.452 335.16C348.573 285.4 291.11 234.832 182.841 170.694C147.737 150.013 134.067 138.383 124.455 121.257C117.8 109.627 117.246 107.688 117.246 94.9263C117.246 84.4277 118.17 79.7404 120.573 75.5381C138.31 47.4292 182.471 37.893 214.987 55.5033C223.667 60.1906 234.942 69.2345 240.488 75.8613L244 80.2253L239.009 89.2693C229.397 106.556 233.464 128.046 248.982 142.1C259.334 151.467 268.383 155.023 284.641 155.831C296.841 156.478 300.16 155.993 308.847 152.599C320.854 147.75 330.836 139.191 336.188 129.008C339.885 122.22 340.254 119.641 339.33 104.448C338.221 82.6351 333.415 69.2271 320.854 53.0715C303.857 31.4204 276.877 14.9416 241.958 4.92792C228.103 1.0488 222.927 0.402282 198.536 0.0790228C181.362 -0.23689 165.474 0.4096 156.786 1.70264ZM160.298 280.389C185.429 293.312 222.566 315.771 242.521 330.149C267.837 348.244 282.431 366.824 286.313 386.044C290.38 404.785 279.474 425.466 257.67 440.976C251.57 445.178 244.739 449.057 242.521 449.542C237.53 450.673 206.678 435.003 170.834 413.028C138.133 392.994 122.615 381.687 111.154 369.572C78.2682 334.998 83.4355 300.424 125.379 274.254C129.815 271.507 134.621 269.244 136.092 269.244C137.57 269.244 148.476 274.254 160.298 280.389Z" fill="black"/>
<path d="M595.786 1.70264C523.545 12.8477 478.644 49.8463 465.528 108.981C456.101 151.467 472.182 190.244 514.126 226.757L531.493 241.62L524.469 244.853C510.799 250.994 490.104 264.887 476.064 277.325C461.1 290.572 452.782 301.563 444.657 318.041C440.406 327.247 439.851 330.156 439.851 348.413C439.851 365.377 440.59 370.387 444.287 379.916C463.873 431.131 521.889 482.992 632.932 548.746C668.036 569.589 684.294 582.997 692.427 598.183C703.879 619.672 700.93 636.474 683 652.307C668.221 665.068 656.205 669.109 632.007 669.109C615.749 669.109 612.237 668.624 603.003 664.745C591.736 660.219 574.73 647.458 572.89 642.293C572.151 640.515 573.814 635.504 576.587 630.34C586.376 613.053 582.317 591.401 566.799 577.185C546.289 558.605 510.815 558.444 490.121 577.024C479.4 586.722 475.896 594.957 475.896 611.113C475.896 628.077 479.593 641.323 488.272 655.862C509.706 691.568 568.832 720 621.673 720C704.266 720 762.097 687.204 784.271 628.069C797.017 593.98 793.135 558.113 773.365 528.55C763.383 514.01 755.628 505.444 737.891 490.42L723.464 478.136L738.613 469.9C777.045 449.38 803.461 421.918 813.073 393.001C818.064 377.815 816.215 353.255 808.452 335.16C787.573 285.4 730.11 234.832 621.841 170.694C586.737 150.013 573.067 138.383 563.455 121.257C556.8 109.627 556.246 107.688 556.246 94.9263C556.246 84.4277 557.17 79.7404 559.573 75.5381C577.31 47.4292 621.471 37.893 653.987 55.5033C662.667 60.1906 673.942 69.2345 679.488 75.8613L683 80.2253L678.009 89.2693C668.397 106.556 672.464 128.046 687.982 142.1C698.334 151.467 707.383 155.023 723.641 155.831C735.841 156.478 739.16 155.993 747.847 152.599C759.854 147.75 769.836 139.191 775.188 129.008C778.885 122.22 779.254 119.641 778.33 104.448C777.221 82.6351 772.415 69.2271 759.854 53.0715C742.857 31.4204 715.877 14.9416 680.958 4.92792C667.103 1.0488 661.927 0.402282 637.536 0.0790228C620.362 -0.23689 604.474 0.4096 595.786 1.70264ZM599.298 280.389C624.429 293.312 661.566 315.771 681.521 330.149C706.837 348.244 721.431 366.824 725.313 386.044C729.38 404.785 718.474 425.466 696.67 440.976C690.57 445.178 683.739 449.057 681.521 449.542C676.53 450.673 645.678 435.003 609.834 413.028C577.133 392.994 561.615 381.687 550.154 369.572C517.268 334.998 522.435 300.424 564.379 274.254C568.815 271.507 573.621 269.244 575.092 269.244C576.57 269.244 587.476 274.254 599.298 280.389Z" fill="black"/>
<path d="M1034.79 1.70264C962.545 12.8477 917.644 49.8463 904.528 108.981C895.101 151.467 911.182 190.244 953.126 226.757L970.493 241.62L963.469 244.853C949.799 250.994 929.104 264.887 915.064 277.325C900.1 290.572 891.782 301.563 883.657 318.041C879.406 327.247 878.851 330.156 878.851 348.413C878.851 365.377 879.59 370.387 883.287 379.916C902.873 431.131 960.889 482.992 1071.93 548.746C1107.04 569.589 1123.29 582.997 1131.43 598.183C1142.88 619.672 1139.93 636.474 1122 652.307C1107.22 665.068 1095.21 669.109 1071.01 669.109C1054.75 669.109 1051.24 668.624 1042 664.745C1030.74 660.219 1013.73 647.458 1011.89 642.293C1011.15 640.515 1012.81 635.504 1015.59 630.34C1025.38 613.053 1021.32 591.401 1005.8 577.185C985.289 558.605 949.815 558.444 929.121 577.024C918.4 586.722 914.896 594.957 914.896 611.113C914.896 628.077 918.593 641.323 927.272 655.862C948.706 691.568 1007.83 720 1060.67 720C1143.27 720 1201.1 687.204 1223.27 628.069C1236.02 593.98 1232.13 558.113 1212.36 528.55C1202.38 514.01 1194.63 505.444 1176.89 490.42L1162.46 478.136L1177.61 469.9C1216.04 449.38 1242.46 421.918 1252.07 393.001C1257.06 377.815 1255.22 353.255 1247.45 335.16C1226.57 285.4 1169.11 234.832 1060.84 170.694C1025.74 150.013 1012.07 138.383 1002.45 121.257C995.8 109.627 995.246 107.688 995.246 94.9263C995.246 84.4277 996.17 79.7404 998.573 75.5381C1016.31 47.4292 1060.47 37.893 1092.99 55.5033C1101.67 60.1906 1112.94 69.2345 1118.49 75.8613L1122 80.2253L1117.01 89.2693C1107.4 106.556 1111.46 128.046 1126.98 142.1C1137.33 151.467 1146.38 155.023 1162.64 155.831C1174.84 156.478 1178.16 155.993 1186.85 152.599C1198.85 147.75 1208.84 139.191 1214.19 129.008C1217.88 122.22 1218.25 119.641 1217.33 104.448C1216.22 82.6351 1211.42 69.2271 1198.85 53.0715C1181.86 31.4204 1154.88 14.9416 1119.96 4.92792C1106.1 1.0488 1100.93 0.402282 1076.54 0.0790228C1059.36 -0.23689 1043.47 0.4096 1034.79 1.70264ZM1038.3 280.389C1063.43 293.312 1100.57 315.771 1120.52 330.149C1145.84 348.244 1160.43 366.824 1164.31 386.044C1168.38 404.785 1157.47 425.466 1135.67 440.976C1129.57 445.178 1122.74 449.057 1120.52 449.542C1115.53 450.673 1084.68 435.003 1048.83 413.028C1016.13 392.994 1000.61 381.687 989.154 369.572C956.268 334.998 961.435 300.424 1003.38 274.254C1007.82 271.507 1012.62 269.244 1014.09 269.244C1015.57 269.244 1026.48 274.254 1038.3 280.389Z" fill="black"/>
</svg>
