<svg width="701" height="271" viewBox="0 0 701 271" fill="none" xmlns="http://www.w3.org/2000/svg">
<path d="M35.1562 94.9688H8.49609L0 63.4258H93.8477L102.051 94.9688H69.1406V202H35.1562V94.9688ZM126.074 129.637C122.038 131.915 118.815 134.975 116.406 138.816C113.997 142.658 112.793 146.857 112.793 151.414C112.793 158.315 115.397 164.272 120.605 169.285C125.749 174.233 131.836 176.707 138.867 176.707C145.964 176.707 152.083 174.233 157.227 169.285C162.435 164.272 165.039 158.315 165.039 151.414C165.039 146.857 163.835 142.658 161.426 138.816C159.017 134.975 155.794 131.915 151.758 129.637C147.786 127.423 143.49 126.316 138.867 126.316C134.375 126.316 130.111 127.423 126.074 129.637ZM165.137 202V199.07C163.053 199.982 161.523 200.6 160.547 200.926C153.646 203.595 146.419 204.93 138.867 204.93C128.906 204.93 119.499 202.618 110.645 197.996C101.79 193.309 94.7591 186.928 89.5508 178.855C84.2773 170.652 81.6406 161.505 81.6406 151.414C81.6406 143.797 83.1706 136.701 86.2305 130.125C89.2904 123.615 93.4896 117.951 98.8281 113.133C104.102 108.315 110.221 104.637 117.188 102.098C124.154 99.4284 131.38 98.0938 138.867 98.0938C146.289 98.0938 153.516 99.3958 160.547 102C167.578 104.604 173.698 108.315 178.906 113.133C184.375 118.081 188.607 123.745 191.602 130.125C194.661 136.701 196.191 143.797 196.191 151.414L196.094 202.293L165.137 202ZM278.125 132.176C275.326 129.832 272.266 128.074 268.945 126.902C265.495 125.73 261.849 125.145 258.008 125.145C250.846 125.145 244.792 127.456 239.844 132.078C234.831 136.701 232.324 142.43 232.324 149.266C232.324 154.604 233.398 159.389 235.547 163.621C237.63 167.853 240.723 171.206 244.824 173.68C248.796 176.219 253.385 177.488 258.594 177.488C266.276 177.488 272.852 175.047 278.32 170.164L295.41 191.844C292.936 194.448 289.486 196.759 285.059 198.777C280.566 200.796 275.944 202.293 271.191 203.27C266.439 204.246 262.044 204.734 258.008 204.734C246.68 204.734 236.686 202.358 228.027 197.605C219.368 192.788 212.728 186.473 208.105 178.66C203.483 170.717 201.172 162.221 201.172 153.172C201.172 144.904 202.572 137.417 205.371 130.711C208.236 123.875 212.174 118.016 217.188 113.133C222.135 108.38 228.158 104.637 235.254 101.902C242.285 99.2331 249.87 97.8984 258.008 97.8984C264.648 97.8984 271.126 98.9401 277.441 101.023C283.822 103.172 289.453 106.199 294.336 110.105L278.125 132.176ZM331.641 63.3281V107.859C334.635 104.799 338.346 102.391 342.773 100.633C347.266 98.875 351.823 97.9961 356.445 97.9961C381.51 97.9961 394.043 112.677 394.043 142.039V202L362.793 202.098V144.188C362.793 138.198 361.426 133.706 358.691 130.711C355.957 127.716 352.116 126.219 347.168 126.219C342.35 126.219 338.574 127.716 335.84 130.711C333.04 133.706 331.641 138.198 331.641 144.188V202L300.391 202.195V63.4258L331.641 63.3281ZM456.25 205.223C446.289 205.223 436.882 202.879 428.027 198.191C419.173 193.504 412.142 187.091 406.934 178.953C401.66 170.75 399.023 161.57 399.023 151.414C399.023 143.797 400.553 136.701 403.613 130.125C406.673 123.549 410.872 117.853 416.211 113.035C421.615 108.152 427.767 104.409 434.668 101.805C441.699 99.2005 448.893 97.8984 456.25 97.8984C463.672 97.8984 470.898 99.2005 477.93 101.805C484.766 104.279 490.918 107.99 496.387 112.938C501.79 117.885 505.99 123.615 508.984 130.125C512.044 136.701 513.574 143.797 513.574 151.414C513.574 159.161 512.077 166.258 509.082 172.703C506.087 179.214 501.855 184.975 496.387 189.988C490.853 194.936 484.701 198.68 477.93 201.219C471.094 203.888 463.867 205.223 456.25 205.223ZM430.176 151.414C430.176 158.38 432.78 164.37 437.988 169.383C443.132 174.396 449.219 176.902 456.25 176.902C463.346 176.902 469.466 174.396 474.609 169.383C479.818 164.37 482.422 158.38 482.422 151.414C482.422 146.857 481.217 142.658 478.809 138.816C476.4 134.975 473.177 131.915 469.141 129.637C465.169 127.358 460.872 126.219 456.25 126.219C451.758 126.219 447.493 127.358 443.457 129.637C439.421 131.915 436.198 134.975 433.789 138.816C431.38 142.658 430.176 146.857 430.176 151.414ZM602.832 102.098V202.195H571.68V102.195L602.832 102.098ZM602.93 73.7773C602.93 76.9023 602.214 79.6693 600.781 82.0781C599.349 84.487 597.396 86.4401 594.922 87.9375C592.448 89.4349 589.714 90.1836 586.719 90.1836C583.724 90.1836 581.022 89.4674 578.613 88.0352C576.139 86.5378 574.186 84.5521 572.754 82.0781C571.257 79.474 570.508 76.707 570.508 73.7773C570.508 70.7826 571.224 68.0482 572.656 65.5742C574.219 63.0352 576.204 61.0495 578.613 59.6172C581.022 58.1849 583.724 57.4688 586.719 57.4688C589.714 57.4688 592.448 58.1849 594.922 59.6172C597.331 61.0495 599.284 63.0352 600.781 65.5742C602.214 68.0482 602.93 70.7826 602.93 73.7773ZM652.734 126.316H650.977C643.034 126.642 639.062 132.176 639.062 142.918V202H607.812V142.918C607.812 114.467 622.201 99.526 650.977 98.0938H652.734C681.51 99.526 695.898 114.467 695.898 142.918V202H664.648V142.918C664.648 132.176 660.677 126.642 652.734 126.316Z" fill="white"/>
<path d="M492.992 149.563C491.717 146.876 492.862 143.664 495.549 142.389L546.316 118.308C549.003 117.033 552.215 118.179 553.49 120.866C554.765 123.554 553.62 126.766 550.932 128.04L500.166 152.121C497.478 153.396 494.266 152.251 492.992 149.563Z" fill="white"/>
<path d="M469.308 196.797C468.033 194.11 469.179 190.898 471.866 189.623L546.316 154.308C549.003 153.033 552.215 154.179 553.49 156.866C554.765 159.554 553.62 162.766 550.932 164.04L476.482 199.355C473.795 200.63 470.583 199.485 469.308 196.797Z" fill="white"/>
<path d="M474.308 120.797C473.033 118.11 474.179 114.898 476.866 113.623L551.316 78.3082C554.003 77.0334 557.215 78.1786 558.49 80.8661C559.765 83.5535 558.62 86.7656 555.932 88.0403L481.482 123.355C478.795 124.63 475.583 123.485 474.308 120.797Z" fill="white"/>
</svg>
